<svg id="Layer_2" data-name="Layer 2" xmlns="http://www.w3.org/2000/svg" viewBox="0 0 331.39 86.91"><defs><style>.cls-1{fill:#00abd9;}.cls-2{fill:#f3a91d;}.cls-3{fill:#1e6ba8;}</style></defs><title>GF PT Logo No Tag Full Color</title><path class="cls-1" d="M231.28,136.61l-6.83-8.32v.16c-3.57,6-11,9.17-17.94,9.17-13.56,0-24.36-9.89-24.36-25S192.95,88,206.51,88c6.93,0,14.37,2.85,17.94,8.87v.47L231.28,89Zm-24.77-5.81c9.68,0,17.94-6.42,17.94-18.14s-9.38-17.84-17.94-17.84c-9.89,0-17.53,6.93-17.53,17.84C189,123.25,196.62,130.8,206.51,130.8Z" transform="translate(-31.97 -54.53)"/><path class="cls-2" d="M279.28,58.43v6.11H249.57V83.24h19v6.11h-19v46.71h-6.11V89.35h-9.24l3.26-6.11h6V58.43Z" transform="translate(-31.97 -54.53)"/><rect class="cls-2" x="243.74" y="35.03" width="6.58" height="46.53"/><rect class="cls-2" x="243.66" y="18.69" width="6.58" height="6.75"/><rect class="cls-1" x="137.47" y="35.09" width="6.58" height="46.53"/><rect class="cls-1" x="137.4" y="18.74" width="6.58" height="6.75"/><path class="cls-1" d="M112.29,101H76.15l-3.7,6.75h31.92a33.79,33.79,0,1,1-4.94-30.31L105,74.05a40.23,40.23,0,1,0,7.32,27.15h-.06Z" transform="translate(-31.97 -54.53)"/><path class="cls-2" d="M298.61,136.16V96h-8.34V89.35h8.34V76.86l6.61-3.7V89.35h8.27V96h-8.27v40.17Z" transform="translate(-31.97 -54.53)"/><path class="cls-1" d="M156.21,121.74c-2.93,5.16-10.22,9-16.59,9a17.38,17.38,0,0,1-10.15-3.1l31.7-27.75c-3.74-7.79-12.23-11.75-21.55-11.75-13.46,0-23.88,9.51-23.88,24.49s10.42,24.79,23.88,24.79c9.51,0,16.65-3.69,22.6-12.12C161.71,125.05,156.63,121.95,156.21,121.74Zm-33.59-6c-.54-4.55,0-6.27,0-6.27,1.32-9,8.2-14.67,17-14.67a19.13,19.13,0,0,1,12.07,4.1l-26.57,23.9A18.06,18.06,0,0,1,122.62,115.79Z" transform="translate(-31.97 -54.53)"/><text x="-31.97" y="-54.53"></text><polygon class="cls-2" points="288.82 5.3 285.7 5.3 285.7 3.89 293.42 3.89 293.42 5.3 290.37 5.3 290.37 13.56 288.82 13.56 288.82 5.3"/><polygon class="cls-2" points="302.95 5.58 302.9 5.58 299.95 13.56 299.12 13.56 296.17 5.58 296.13 5.58 296.13 13.56 294.72 13.56 294.72 3.89 296.81 3.89 299.57 11.31 302.27 3.89 304.35 3.89 304.35 13.56 302.95 13.56 302.95 5.58"/><path class="cls-3" d="M320.1,141.43c-.8.17-2.18-1.13-2.48-2.57a3,3,0,0,1,0-.59,56.45,56.45,0,0,1,3.35-17.09c.27-.81,1.45-1.41,2.51-1.63s1.88-.12,2,.42a.72.72,0,0,1-.06.45,64,64,0,0,0-2.85,8.91c8-3.94,13.28-10.5,12.39-14.79-.4-1.93-2-2.55-4.09-2.12-5.31,1.11-9.49,5.35-14.9,12.23a.65.65,0,0,1-.39.24A1.58,1.58,0,0,1,314,123.7a.77.77,0,0,1,.14-.66c5.44-7.71,11.45-12.1,17.56-13.37,4.06-.85,7.06.23,7.81,3.83,1,4.78-3.12,10.43-10,14.68a48.54,48.54,0,0,1-6.32,3.3,1.26,1.26,0,0,1-1.11-.36,56,56,0,0,0-1.44,9.37C320.62,141.09,320.4,141.37,320.1,141.43Z" transform="translate(-31.97 -54.53)"/><path class="cls-3" d="M360.65,102.26c1.14-.24,2.45,1.31,2.68,2.41.1.46,0,.83-.39,1a54.42,54.42,0,0,0-9.54,4.17c1.12-.12,2.3,0,2.4.49a.3.3,0,0,1,0,.16,126,126,0,0,0-5.72,24.32.53.53,0,0,1-.37.51c-.76.16-2.39-1.2-2.64-2.38-.68-3.26,1.85-13.69,4.14-21.85a51,51,0,0,0-9.11,6.78.52.52,0,0,1-.28.18c-.53.11-1.12-.6-1.26-1.28a1,1,0,0,1,.17-.87C344.76,111.29,354.73,103.5,360.65,102.26Z" transform="translate(-31.97 -54.53)"/></svg>